<svg width="261" height="300" viewBox="0 0 261 300" fill="none" xmlns="http://www.w3.org/2000/svg">
<path d="M160 199.5C215.229 199.5 260.5 155.228 260.5 100C260.5 44.7715 215.729 0 160.5 0C141.557 0 123.843 5.20881 108.744 14.2819C106.276 8.77323 101.946 4.76183 96.4404 2.25C93.2735 0.805172 89.741 0 86.0004 0C72.0538 0 61.0004 11.1929 61.0004 25V249C61.0004 276.614 82.8862 299 110.5 299C138.115 299 160 276.614 160 249V199.5Z" fill="#222222"/>
<circle cx="160.5" cy="100" r="50" fill="#F8EA32"/>
<rect x="0.165344" width="49.8843" height="299" rx="24.9422" transform="rotate(0.0316834 0.165344 0)" fill="#222222"/>
</svg>
